PathFileType	4	(X/Y/Z)	distal_points_all_segments.trc
DataRate	CameraRate	NumFrames	NumMarkers	Units	OrigDataRate	OrigDataStartFrame	OrigNumFrames
60.0	60.0	20	18	m	60.0	37	290
Frame#	Time	worldbody			l_thigh			l_shank			l_foot			l_toes			r_thigh			r_shank			r_foot			r_toes			head			torso			l_uarm			l_larm			l_hand			r_uarm			r_larm			r_hand			pelvis_shifted		
		X1	Y1	Z1	X2	Y2	Z2	X3	Y3	Z3	X4	Y4	Z4	X5	Y5	Z5	X6	Y6	Z6	X7	Y7	Z7	X8	Y8	Z8	X9	Y9	Z9	X10	Y10	Z10	X11	Y11	Z11	X12	Y12	Z12	X13	Y13	Z13	X14	Y14	Z14	X15	Y15	Z15	X16	Y16	Z16	X17	Y17	Z17	X18	Y18	Z18
37	0.60000	0.000	0.000	0.000	0.252	0.686	0.472	0.242	0.672	0.084	0.242	0.681	-0.078	0.199	0.817	0.025	0.479	0.709	0.470	0.507	0.697	0.086	0.498	0.694	-0.075	0.517	0.845	0.023	0.363	0.704	1.565	0.360	0.718	1.354	0.153	0.631	1.105	0.098	0.698	0.881	0.044	0.747	0.652	0.604	0.704	1.106	0.617	0.783	0.879	0.647	0.840	0.647	0.372	0.696	0.934
38	0.61667	0.000	0.000	0.000	0.252	0.687	0.471	0.242	0.671	0.084	0.243	0.680	-0.078	0.199	0.816	0.025	0.480	0.710	0.470	0.508	0.697	0.086	0.498	0.694	-0.075	0.517	0.845	0.023	0.363	0.705	1.565	0.360	0.719	1.354	0.154	0.632	1.106	0.098	0.698	0.882	0.044	0.750	0.654	0.604	0.705	1.106	0.616	0.784	0.879	0.648	0.839	0.647	0.372	0.696	0.934
39	0.63333	0.000	0.000	0.000	0.252	0.687	0.471	0.243	0.670	0.084	0.244	0.681	-0.078	0.198	0.815	0.026	0.481	0.711	0.470	0.508	0.697	0.086	0.498	0.694	-0.075	0.516	0.845	0.024	0.364	0.706	1.565	0.361	0.719	1.353	0.154	0.632	1.106	0.098	0.698	0.883	0.044	0.751	0.655	0.605	0.704	1.107	0.616	0.784	0.880	0.649	0.837	0.647	0.372	0.696	0.934
40	0.65000	0.000	0.000	0.000	0.251	0.688	0.471	0.243	0.670	0.083	0.244	0.681	-0.078	0.198	0.815	0.026	0.482	0.712	0.470	0.508	0.696	0.086	0.496	0.694	-0.075	0.516	0.845	0.024	0.364	0.706	1.565	0.361	0.718	1.353	0.155	0.632	1.107	0.099	0.698	0.883	0.044	0.751	0.655	0.605	0.703	1.107	0.617	0.783	0.880	0.649	0.838	0.647	0.373	0.696	0.934
41	0.66667	0.000	0.000	0.000	0.251	0.689	0.471	0.243	0.670	0.083	0.243	0.682	-0.079	0.199	0.816	0.027	0.482	0.713	0.470	0.508	0.697	0.086	0.496	0.694	-0.075	0.516	0.845	0.024	0.364	0.706	1.565	0.361	0.718	1.353	0.154	0.633	1.107	0.100	0.698	0.882	0.043	0.750	0.655	0.606	0.702	1.106	0.617	0.783	0.880	0.649	0.840	0.648	0.373	0.696	0.934
42	0.68333	0.000	0.000	0.000	0.251	0.688	0.471	0.243	0.670	0.083	0.243	0.682	-0.079	0.199	0.816	0.027	0.481	0.714	0.469	0.508	0.697	0.086	0.496	0.694	-0.075	0.517	0.845	0.023	0.364	0.706	1.565	0.361	0.718	1.353	0.154	0.633	1.106	0.100	0.698	0.882	0.044	0.749	0.654	0.605	0.702	1.106	0.617	0.784	0.880	0.648	0.843	0.649	0.373	0.697	0.934
43	0.70000	0.000	0.000	0.000	0.252	0.687	0.471	0.243	0.670	0.083	0.243	0.682	-0.079	0.199	0.816	0.027	0.482	0.715	0.469	0.507	0.697	0.085	0.497	0.694	-0.076	0.517	0.845	0.022	0.365	0.705	1.565	0.361	0.719	1.353	0.154	0.632	1.106	0.100	0.698	0.882	0.047	0.746	0.653	0.606	0.701	1.106	0.616	0.786	0.881	0.645	0.847	0.650	0.374	0.697	0.934
44	0.71667	0.000	0.000	0.000	0.253	0.686	0.471	0.242	0.670	0.083	0.243	0.682	-0.079	0.199	0.816	0.027	0.482	0.715	0.469	0.507	0.697	0.085	0.497	0.694	-0.076	0.517	0.845	0.022	0.365	0.705	1.565	0.362	0.719	1.353	0.155	0.631	1.107	0.100	0.698	0.883	0.050	0.745	0.653	0.607	0.701	1.106	0.615	0.787	0.882	0.642	0.851	0.651	0.374	0.696	0.934
45	0.73333	0.000	0.000	0.000	0.253	0.686	0.471	0.242	0.671	0.084	0.243	0.682	-0.078	0.199	0.816	0.026	0.482	0.715	0.469	0.507	0.698	0.085	0.497	0.694	-0.076	0.517	0.846	0.022	0.366	0.705	1.566	0.362	0.719	1.352	0.155	0.631	1.107	0.100	0.698	0.883	0.052	0.745	0.653	0.607	0.701	1.107	0.615	0.787	0.882	0.641	0.851	0.651	0.375	0.696	0.933
46	0.75000	0.000	0.000	0.000	0.254	0.687	0.471	0.242	0.671	0.084	0.242	0.681	-0.078	0.199	0.816	0.026	0.483	0.716	0.469	0.507	0.698	0.085	0.496	0.694	-0.076	0.516	0.846	0.022	0.366	0.706	1.566	0.363	0.718	1.352	0.155	0.632	1.106	0.100	0.699	0.882	0.053	0.746	0.652	0.607	0.701	1.106	0.614	0.787	0.881	0.641	0.846	0.650	0.375	0.696	0.933
47	0.76667	0.000	0.000	0.000	0.253	0.687	0.471	0.242	0.671	0.084	0.241	0.681	-0.078	0.198	0.816	0.026	0.483	0.717	0.469	0.508	0.698	0.086	0.495	0.694	-0.075	0.516	0.846	0.022	0.366	0.706	1.566	0.363	0.718	1.351	0.154	0.633	1.106	0.101	0.699	0.881	0.050	0.748	0.652	0.607	0.701	1.106	0.614	0.787	0.881	0.640	0.843	0.648	0.375	0.697	0.934
48	0.78333	0.000	0.000	0.000	0.253	0.687	0.471	0.242	0.671	0.084	0.241	0.680	-0.078	0.198	0.816	0.026	0.483	0.718	0.470	0.508	0.697	0.086	0.496	0.693	-0.075	0.517	0.845	0.022	0.366	0.706	1.567	0.363	0.718	1.351	0.154	0.634	1.106	0.101	0.699	0.881	0.046	0.751	0.653	0.606	0.701	1.106	0.615	0.786	0.881	0.639	0.844	0.648	0.374	0.697	0.934
49	0.80000	0.000	0.000	0.000	0.253	0.687	0.471	0.242	0.671	0.084	0.242	0.681	-0.078	0.198	0.816	0.026	0.483	0.717	0.470	0.508	0.698	0.086	0.497	0.693	-0.075	0.517	0.845	0.022	0.366	0.706	1.567	0.363	0.718	1.352	0.154	0.634	1.106	0.101	0.698	0.881	0.042	0.752	0.655	0.606	0.701	1.106	0.615	0.785	0.881	0.638	0.846	0.649	0.374	0.697	0.934
50	0.81667	0.000	0.000	0.000	0.254	0.687	0.471	0.241	0.670	0.084	0.242	0.681	-0.078	0.199	0.816	0.027	0.483	0.717	0.470	0.507	0.698	0.086	0.498	0.694	-0.075	0.517	0.846	0.022	0.366	0.706	1.566	0.364	0.718	1.353	0.155	0.633	1.107	0.101	0.698	0.882	0.039	0.753	0.657	0.606	0.701	1.106	0.615	0.784	0.880	0.640	0.848	0.649	0.374	0.697	0.934
51	0.83333	0.000	0.000	0.000	0.254	0.687	0.471	0.242	0.671	0.084	0.242	0.682	-0.078	0.200	0.816	0.027	0.483	0.717	0.470	0.507	0.698	0.086	0.498	0.694	-0.075	0.517	0.846	0.022	0.367	0.706	1.566	0.364	0.718	1.353	0.156	0.633	1.106	0.101	0.697	0.882	0.034	0.755	0.659	0.607	0.701	1.106	0.616	0.782	0.880	0.642	0.848	0.649	0.374	0.697	0.934
52	0.85000	0.000	0.000	0.000	0.254	0.686	0.471	0.243	0.671	0.084	0.241	0.682	-0.078	0.200	0.817	0.027	0.483	0.718	0.470	0.508	0.697	0.086	0.497	0.694	-0.075	0.517	0.845	0.023	0.368	0.705	1.565	0.365	0.718	1.352	0.157	0.633	1.106	0.101	0.697	0.881	0.026	0.755	0.661	0.607	0.701	1.106	0.617	0.781	0.879	0.645	0.848	0.650	0.374	0.697	0.934
53	0.86667	0.000	0.000	0.000	0.254	0.686	0.471	0.244	0.671	0.084	0.240	0.681	-0.078	0.200	0.817	0.026	0.483	0.718	0.469	0.508	0.696	0.086	0.497	0.693	-0.075	0.517	0.845	0.023	0.369	0.706	1.565	0.364	0.718	1.352	0.156	0.633	1.105	0.101	0.697	0.880	0.017	0.754	0.663	0.606	0.700	1.106	0.616	0.780	0.879	0.647	0.849	0.650	0.374	0.698	0.934
54	0.88333	0.000	0.000	0.000	0.254	0.687	0.471	0.243	0.671	0.083	0.242	0.681	-0.079	0.200	0.817	0.026	0.484	0.718	0.469	0.508	0.696	0.085	0.498	0.693	-0.076	0.517	0.844	0.022	0.370	0.706	1.565	0.364	0.718	1.352	0.156	0.633	1.105	0.100	0.697	0.881	0.011	0.753	0.665	0.605	0.699	1.105	0.616	0.780	0.879	0.650	0.853	0.652	0.374	0.697	0.933
55	0.90000	0.000	0.000	0.000	0.254	0.688	0.471	0.242	0.671	0.083	0.243	0.682	-0.079	0.200	0.817	0.026	0.483	0.718	0.469	0.507	0.696	0.085	0.499	0.693	-0.076	0.517	0.844	0.022	0.370	0.706	1.566	0.364	0.718	1.352	0.156	0.633	1.106	0.099	0.698	0.882	0.007	0.755	0.668	0.604	0.698	1.105	0.616	0.780	0.879	0.653	0.858	0.654	0.373	0.696	0.933
56	0.91667	0.000	0.000	0.000	0.254	0.688	0.471	0.242	0.671	0.084	0.244	0.682	-0.078	0.199	0.817	0.026	0.483	0.717	0.469	0.507	0.697	0.085	0.499	0.693	-0.076	0.517	0.845	0.022	0.371	0.707	1.566	0.365	0.718	1.351	0.155	0.634	1.107	0.098	0.699	0.883	0.002	0.758	0.671	0.604	0.699	1.106	0.616	0.780	0.879	0.656	0.860	0.656	0.373	0.697	0.934
